<?xml version="1.0" encoding="iso-8859-1"?>
<!-- Generator: Adobe Illustrator 19.0.0, SVG Export Plug-In . SVG Version: 6.00 Build 0)  -->
<svg version="1.1" id="Layer_1" xmlns="http://www.w3.org/2000/svg" xmlns:xlink="http://www.w3.org/1999/xlink" x="0px" y="0px"
	 viewBox="0 0 501.882 501.882" style="enable-background:new 0 0 501.882 501.882;" xml:space="preserve">
<g>
	<g>
		<path d="M491.375,277.883c-7.467-4.267-16-4.267-23.467,1.067c-39.467,28.8-86.4,44.8-131.2,44.8s-85.333-16-114.133-44.8
			c-59.733-60.8-59.733-163.2,0-245.333c5.333-6.4,5.333-16,1.067-23.467s-12.8-11.733-21.333-9.6
			c-49.067,10.667-92.8,34.133-128,69.333c-46.933,48-73.6,112-73.6,179.2s26.667,131.2,73.6,179.2c48,46.933,112,73.6,179.2,73.6
			c68.267,0,131.2-26.667,178.133-74.667c35.2-35.2,59.733-78.933,69.333-128C502.041,290.683,498.841,282.149,491.375,277.883z
			 M402.841,398.416c-39.467,39.467-92.8,61.867-149.333,61.867s-109.867-22.4-149.333-61.867
			c-39.467-39.466-61.867-92.8-61.867-149.333s22.4-109.867,61.867-149.333c17.067-17.067,36.267-29.867,56.533-40.533
			c-40.533,88.533-28.8,186.667,33.067,248.533c37.333,37.333,88.533,57.6,144,57.6c35.2,0,71.467-8.533,105.6-23.467
			C432.708,363.216,419.908,381.349,402.841,398.416z"/>
	</g>
</g>
<g>
	<g>
		<path d="M488.175,94.416c-2.133-7.467-8.533-13.867-17.067-14.933l-60.8-10.667l-25.6-56.533
			c-3.2-6.4-10.667-11.733-18.133-11.733c-1.067,0-1.067,0-1.067,0c-7.467,0-14.933,4.267-18.133,10.667l-28.8,54.4l-61.867,7.467
			c-7.467,1.067-13.867,6.4-17.067,13.867c-3.2,7.467-1.067,16,4.267,21.333l42.667,44.8l-11.733,60.8
			c-2.133,7.467,1.067,14.933,7.467,20.267c6.4,4.267,14.933,5.333,22.4,2.133l55.467-26.667l54.4,29.867
			c3.2,2.133,7.467,3.2,10.667,3.2c11.733,0,20.267-9.6,20.267-21.333c0-1.067,0-3.2-1.067-5.333l-8.533-58.667l45.867-41.6
			C488.175,110.416,490.308,101.883,488.175,94.416z M400.707,134.949c-5.333,4.267-7.467,11.733-6.4,18.133l4.267,29.867
			l-26.667-14.933c-3.2-2.133-7.467-3.2-10.667-3.2c-3.2,0-6.4,1.067-7.467,2.133l-27.733,13.867l6.4-29.867
			c1.067-6.4-1.067-12.8-5.333-18.133l-21.333-22.4l29.867-3.2c6.4,0,12.8-4.267,16-10.667l13.867-26.667l12.8,27.733
			c2.133,6.4,8.533,10.667,14.933,11.733l29.867,5.333L400.707,134.949z"/>
	</g>
</g>
<g>
</g>
<g>
</g>
<g>
</g>
<g>
</g>
<g>
</g>
<g>
</g>
<g>
</g>
<g>
</g>
<g>
</g>
<g>
</g>
<g>
</g>
<g>
</g>
<g>
</g>
<g>
</g>
<g>
</g>
</svg>
