<?xml version="1.0" encoding="iso-8859-1"?>
<!-- Generator: Adobe Illustrator 19.0.0, SVG Export Plug-In . SVG Version: 6.00 Build 0)  -->
<svg version="1.1" id="Layer_1" xmlns="http://www.w3.org/2000/svg" xmlns:xlink="http://www.w3.org/1999/xlink" x="0px" y="0px"
	 viewBox="0 0 512 512" style="enable-background:new 0 0 512 512;" xml:space="preserve">
<polygon style="fill:#B9B9B9;" points="449.362,51.745 394.894,66.673 394.894,390.859 449.362,405.787 "/>
<path style="fill:#DCDCDC;" d="M228.766,152.511L8.171,51.746C8.17,51.812,8.17,405.787,8.17,405.787l220.596-100.766
	l187.915,85.837V66.673L228.766,152.511z"/>
<polygon style="fill:#B9B9B9;" points="228.766,193.362 8.17,405.787 449.362,405.787 "/>
<polygon style="fill:#FFFFFF;" points="8.17,51.745 228.766,264.17 449.362,51.745 "/>
<path style="fill:#02ACAB;" d="M394.894,242.383v217.872c60.165,0,108.936-48.771,108.936-108.936S455.059,242.383,394.894,242.383z
	"/>
<path style="fill:#42C8C6;" d="M394.894,242.383c42.115,0,76.255,48.771,76.255,108.936s-34.141,108.936-76.255,108.936
	c-60.165,0-108.936-48.771-108.936-108.936S334.728,242.383,394.894,242.383z"/>
<path style="fill:#FFFFFF;" d="M449.362,334.979h-38.128v-38.128c0-9.024-7.316-16.34-16.34-16.34c-9.024,0-16.34,7.316-16.34,16.34
	v38.128h-38.128c-9.024,0-16.34,7.316-16.34,16.34c0,9.024,7.316,16.34,16.34,16.34h38.128v38.128c0,9.024,7.316,16.34,16.34,16.34
	c9.024,0,16.34-7.316,16.34-16.34V367.66h38.128c9.024,0,16.34-7.316,16.34-16.34C465.702,342.295,458.386,334.979,449.362,334.979z
	"/>
<path d="M264.177,397.617H28.433L192,240.108l31.099,29.947c1.582,1.524,3.624,2.285,5.667,2.285c2.043,0,4.085-0.761,5.667-2.285
	l31.099-29.948l20.735,19.967c1.585,1.526,3.626,2.285,5.666,2.285c2.143,0,4.283-0.838,5.886-2.503
	c3.13-3.25,3.032-8.422-0.218-11.552l-20.289-19.539l163.88-157.811v149.648c0,4.512,3.657,8.17,8.17,8.17
	c4.513,0,8.17-3.658,8.17-8.17V51.745c0-4.512-3.657-8.17-8.17-8.17H8.171c-2.167,0-4.244,0.861-5.778,2.393
	c-2.392,2.393-2.392,3.952-2.392,9.753L0,405.787c0,4.512,3.657,8.17,8.17,8.17h256.007c4.513,0,8.17-3.658,8.17-8.17
	C272.347,401.275,268.689,397.617,264.177,397.617z M16.34,386.577c0-61.669,0-253.993,0.001-315.622l163.88,157.81L16.34,386.577z
	 M228.766,252.828L28.433,59.915h400.665L228.766,252.828z"/>
<path d="M394.894,234.213c-64.572,0-117.106,52.533-117.106,117.106s52.534,117.106,117.106,117.106S512,415.892,512,351.319
	S459.466,234.213,394.894,234.213z M394.894,452.085c-55.563,0-100.766-45.203-100.766-100.766s45.203-100.766,100.766-100.766
	S495.66,295.756,495.66,351.319S450.457,452.085,394.894,452.085z"/>
<path d="M449.362,326.809h-29.957v-29.957c0-13.516-10.996-24.511-24.511-24.511c-13.515,0-24.511,10.995-24.511,24.511v29.957
	h-29.957c-13.515,0-24.511,10.995-24.511,24.511c0,13.516,10.996,24.511,24.511,24.511h29.957v29.957
	c0,13.516,10.996,24.511,24.511,24.511c13.515,0,24.511-10.995,24.511-24.511V375.83h29.957c13.515,0,24.511-10.995,24.511-24.511
	C473.872,337.803,462.876,326.809,449.362,326.809z M449.362,359.489h-38.128c-4.513,0-8.17,3.658-8.17,8.17v38.128
	c0,4.506-3.665,8.17-8.17,8.17s-8.17-3.665-8.17-8.17V367.66c0-4.512-3.657-8.17-8.17-8.17h-38.128c-4.506,0-8.17-3.665-8.17-8.17
	c0-4.506,3.665-8.17,8.17-8.17h38.128c4.513,0,8.17-3.658,8.17-8.17v-38.128c0-4.506,3.665-8.17,8.17-8.17s8.17,3.665,8.17,8.17
	v38.128c0,4.512,3.657,8.17,8.17,8.17h38.128c4.506,0,8.17,3.665,8.17,8.17C457.532,355.825,453.867,359.489,449.362,359.489z"/>
<g>
</g>
<g>
</g>
<g>
</g>
<g>
</g>
<g>
</g>
<g>
</g>
<g>
</g>
<g>
</g>
<g>
</g>
<g>
</g>
<g>
</g>
<g>
</g>
<g>
</g>
<g>
</g>
<g>
</g>
</svg>
