<?xml version="1.0" encoding="iso-8859-1"?>
<!-- Generator: Adobe Illustrator 19.0.0, SVG Export Plug-In . SVG Version: 6.00 Build 0)  -->
<svg version="1.1" id="Layer_1" xmlns="http://www.w3.org/2000/svg" xmlns:xlink="http://www.w3.org/1999/xlink" x="0px" y="0px"
	 viewBox="0 0 512 512" style="enable-background:new 0 0 512 512;" xml:space="preserve">
<polygon style="fill:#B9B9B9;" points="449.362,51.745 394.894,66.673 394.894,390.859 449.362,405.787 "/>
<path style="fill:#DCDCDC;" d="M228.766,152.511L8.171,51.746C8.17,51.812,8.17,405.787,8.17,405.787l220.596-100.766
	l187.915,85.837V66.673L228.766,152.511z"/>
<polygon style="fill:#B9B9B9;" points="228.766,193.362 8.17,405.787 449.362,405.787 "/>
<polygon style="fill:#FFFFFF;" points="8.17,51.745 228.766,264.17 449.362,51.745 "/>
<path style="fill:#FE5F1A;" d="M394.894,242.383v217.872c60.165,0,108.936-48.771,108.936-108.936S455.059,242.383,394.894,242.383z
	"/>
<path style="fill:#FE834D;" d="M394.894,242.383c42.115,0,76.255,48.771,76.255,108.936s-34.141,108.936-76.255,108.936
	c-60.165,0-108.936-48.771-108.936-108.936S334.728,242.383,394.894,242.383z"/>
<path style="fill:#FFFFFF;" d="M444.963,378.28l-26.961-26.961l26.961-26.961c6.381-6.381,6.381-16.727,0-23.109
	c-6.382-6.381-16.727-6.381-23.109,0l-26.961,26.961l-26.961-26.961c-6.382-6.381-16.727-6.381-23.109,0
	c-6.382,6.382-6.382,16.727,0,23.109l26.961,26.961l-26.961,26.961c-6.382,6.381-6.382,16.727,0,23.109
	c6.381,6.381,16.727,6.381,23.109,0l26.961-26.961l26.961,26.961c6.381,6.381,16.727,6.381,23.109,0
	C451.344,395.007,451.344,384.661,444.963,378.28z"/>
<path d="M264.177,397.617H28.433L192,240.108l31.099,29.947c1.582,1.524,3.624,2.285,5.667,2.285c2.043,0,4.085-0.761,5.667-2.285
	l31.099-29.947l20.735,19.966c1.585,1.526,3.626,2.285,5.666,2.285c2.143,0,4.283-0.838,5.886-2.503
	c3.13-3.25,3.033-8.422-0.218-11.552l-20.29-19.539L441.191,70.954v149.648c0,4.512,3.658,8.17,8.17,8.17
	c4.512,0,8.17-3.658,8.17-8.17V51.745c0-4.512-3.658-8.17-8.17-8.17H8.171c-2.167,0-4.245,0.861-5.777,2.393
	c-2.393,2.393-2.393,3.952-2.393,9.753L0,405.787c0,4.512,3.658,8.17,8.17,8.17h256.007c4.512,0,8.17-3.658,8.17-8.17
	C272.347,401.275,268.689,397.617,264.177,397.617z M16.34,386.577c0-61.669,0-253.993,0.001-315.622l163.88,157.81L16.34,386.577z
	 M228.766,252.828L28.433,59.915h400.665L228.766,252.828z"/>
<path d="M394.894,234.213c-64.573,0-117.106,52.533-117.106,117.106s52.533,117.106,117.106,117.106S512,415.892,512,351.319
	S459.467,234.213,394.894,234.213z M394.894,452.085c-55.563,0-100.766-45.203-100.766-100.766s45.203-100.766,100.766-100.766
	S495.66,295.756,495.66,351.319S450.457,452.085,394.894,452.085z"/>
<path d="M450.74,295.473c-4.63-4.63-10.785-7.179-17.332-7.179c-6.547,0-12.702,2.549-17.332,7.179l-21.183,21.183l-21.183-21.183
	c-4.63-4.63-10.785-7.179-17.332-7.179s-12.703,2.549-17.332,7.179c-9.557,9.557-9.557,25.107,0,34.664l21.183,21.183
	l-21.183,21.183c-9.557,9.557-9.557,25.107,0,34.664c4.63,4.63,10.785,7.179,17.332,7.179s12.702-2.549,17.332-7.179l21.183-21.183
	l21.183,21.183c4.63,4.63,10.785,7.179,17.332,7.179c6.547,0,12.703-2.549,17.332-7.179c9.557-9.557,9.557-25.107,0-34.664
	l-21.183-21.183l21.183-21.183C460.297,320.58,460.297,305.03,450.74,295.473z M439.186,318.582l-26.961,26.961
	c-3.191,3.191-3.191,8.364,0,11.554l26.961,26.961c3.185,3.185,3.185,8.37,0,11.555c-1.544,1.544-3.595,2.393-5.778,2.393
	c-2.182,0-4.234-0.85-5.777-2.393l-26.961-26.961c-1.595-1.595-3.686-2.393-5.777-2.393c-2.091,0-4.182,0.797-5.777,2.393
	l-26.961,26.961c-1.544,1.544-3.595,2.393-5.777,2.393c-2.182,0-4.234-0.85-5.778-2.393c-3.185-3.185-3.185-8.37,0-11.555
	l26.961-26.961c3.191-3.191,3.191-8.364,0-11.554l-26.961-26.961c-3.185-3.185-3.185-8.37,0-11.555
	c1.544-1.544,3.595-2.393,5.778-2.393c2.182,0,4.234,0.85,5.777,2.393l26.961,26.961c3.191,3.191,8.364,3.191,11.554,0
	l26.961-26.961c1.544-1.544,3.595-2.393,5.777-2.393c2.182,0,4.234,0.85,5.778,2.393
	C442.371,310.213,442.371,315.396,439.186,318.582z"/>
<g>
</g>
<g>
</g>
<g>
</g>
<g>
</g>
<g>
</g>
<g>
</g>
<g>
</g>
<g>
</g>
<g>
</g>
<g>
</g>
<g>
</g>
<g>
</g>
<g>
</g>
<g>
</g>
<g>
</g>
</svg>
