<svg width="317" height="317" viewBox="0 0 317 317" fill="none" xmlns="http://www.w3.org/2000/svg">
<path d="M158.839 316.822C153.943 316.822 148.886 314.826 145.057 311.158L6.48425 172.425C2.80853 168.749 0.821045 163.7 0.821045 158.796L60.5381 162.165L64.3673 227.246L68.043 162.626L150.114 167.529L154.702 244.85L95.2924 248.372L155.009 251.902L158.839 316.822Z" fill="#28ACC0"/>
<path d="M244.741 239.034L244.127 239.648L163.124 244.39L167.72 167.522L249.184 162.78L244.741 239.034ZM316.859 158.797C316.859 163.701 315.025 168.75 311.196 172.426L261.278 222.497L257.756 162.166L316.859 158.797ZM227.591 256.031L172.624 311.151C168.794 314.827 163.891 316.822 158.842 316.822L162.671 252.355L227.591 256.031Z" fill="#28ACC0"/>
<path d="M158.838 0.777925C163.895 0.777925 168.791 2.7731 172.62 6.44115L311.193 145.175C315.022 148.85 316.864 153.9 316.864 158.796L257.3 155.434L253.471 90.3535L249.642 154.974L167.717 150.07L163.128 72.7499L222.538 69.2277L162.668 65.7054L158.838 0.777925Z" fill="#7AC6C0"/>
<path d="M90.0879 61.5655L145.063 6.44503C148.884 2.76931 153.941 0.774152 158.837 0.774152L155.161 65.2489L90.0879 61.5655ZM73.0906 78.5628L73.551 77.9489L154.547 73.2066L150.112 150.074L68.494 154.817L73.0906 78.5628ZM6.48255 145.171L56.5537 95.0997L60.0759 155.431L0.819336 158.799C0.819336 153.904 2.80683 148.847 6.48255 145.171Z" fill="#C0E1D7"/>
</svg>
