<svg width="699" height="472" viewBox="0 0 699 472" fill="none" xmlns="http://www.w3.org/2000/svg">
<path d="M130.071 3.55006C132.421 5.89006 134.771 9.26006 134.781 12.6501C134.791 18.5101 127.911 26.4601 115.191 39.5201C62.1506 90.5901 35.4706 153.13 35.6506 228.56C35.8506 312.01 63.9106 379.03 118.451 430.97C129.921 441.22 134.631 449.28 134.651 456.18C134.651 459.56 132.321 463.08 129.981 466.47C127.781 468.82 123.091 471.18 119.711 471.18C107.091 471.21 89.4306 456.29 66.3706 427.26C21.4706 372.23 1.17061 311.46 0.0306069 228.64C-1.01939 145.78 24.9606 89.5901 75.8106 31.5801C94.1106 10.8501 109.371 0.0800617 119.781 0.0600617C123.161 0.0500617 126.681 1.21006 130.071 3.55006Z" fill="#3B3B4F"/>
<path d="M408.661 243.49C388.731 238.4 470.511 141.78 325.161 26.1C325.161 26.1 344.231 86.69 248.071 221.9C151.861 357.06 290.851 437.58 290.851 437.58C290.851 437.58 225.621 402.82 301.451 279.06C315.021 256.61 332.781 236.28 354.831 190.52C354.831 190.52 374.351 218.07 364.161 277.8C348.921 368.06 430.251 342.23 431.511 343.49C459.921 376.94 407.981 435.73 404.821 437.58C401.671 439.38 553.151 346.46 445.531 206.62C438.161 213.99 428.581 248.59 408.661 243.49Z" fill="#3B3B4F"/>
<path d="M568.501 3.49006C566.151 5.83006 563.801 9.20006 563.791 12.5901C563.781 18.4501 570.661 26.4001 583.381 39.4601C636.421 90.5201 663.101 153.07 662.921 228.5C662.721 311.95 634.661 378.97 580.121 430.91C568.651 441.16 563.941 449.22 563.921 456.12C563.921 459.5 566.251 463.02 568.591 466.41C570.791 468.76 575.481 471.11 578.861 471.12C591.481 471.15 609.141 456.23 632.201 427.2C677.101 372.17 697.401 311.4 698.541 228.58C699.591 145.72 673.611 89.5301 622.761 31.5201C604.461 10.7901 589.201 0.0200641 578.791 6.41018e-05C575.411 -0.0099359 571.891 1.15006 568.501 3.49006Z" fill="#3B3B4F"/>
</svg>
