<svg width="176" height="205" viewBox="0 0 176 205" fill="none" xmlns="http://www.w3.org/2000/svg">
<path fill-rule="evenodd" clip-rule="evenodd" d="M34.875 121.753L52.7704 67.6195H124.352L142.247 121.753H34.875Z" fill="#EED9C3"/>
<path d="M111.515 99.4306C114.308 99.4306 116.573 97.4801 116.573 95.074C116.573 92.6679 114.308 90.7174 111.515 90.7174C108.722 90.7174 106.458 92.6679 106.458 95.074C106.458 97.4801 108.722 99.4306 111.515 99.4306Z" fill="#353535"/>
<path fill-rule="evenodd" clip-rule="evenodd" d="M78.0468 90.1206C78.0468 88.5993 76.6143 87.3657 74.8492 87.3657C70.7903 87.3657 63.8284 87.3657 59.7699 87.3657C58.0044 87.3657 56.5723 88.5993 56.5723 90.1206C56.5723 92.4916 56.5723 95.9479 56.5723 98.6506C56.5723 100.932 58.7196 102.782 61.3673 102.782C63.01 102.782 64.9237 102.782 66.8562 102.782C69.8242 102.782 72.6694 101.766 74.7697 99.9578C76.8676 98.1511 78.0468 95.6984 78.0468 93.1422C78.0468 92.0461 78.0468 91.0071 78.0468 90.1206Z" fill="#A78347"/>
<path fill-rule="evenodd" clip-rule="evenodd" d="M140.475 15.8822L176 0L156.528 63.0969L140.474 77.1184L140.475 15.8822Z" fill="#E3B261"/>
<path fill-rule="evenodd" clip-rule="evenodd" d="M35.5249 15.8822L0 0L19.4714 63.0969L35.5256 77.1184L35.5249 15.8822Z" fill="#E3B261"/>
<path fill-rule="evenodd" clip-rule="evenodd" d="M142.247 44.6719C142.247 44.6719 115.404 29.2555 88.5611 29.2555C61.7182 29.2555 34.875 44.6719 34.875 44.6719V90.9201L42.0333 103.253C47.1695 86.2075 70.4151 79.1066 86.5957 89.6407L88.5611 90.9201L90.5265 89.6407C106.708 79.1066 129.953 86.2075 135.089 103.253L142.247 90.9201V44.6719Z" fill="#E3B261"/>
<path fill-rule="evenodd" clip-rule="evenodd" d="M70.6651 114.044L56.3488 186.501L36.6084 174.168L52.7695 121.753L70.6651 114.044Z" fill="#D4D4D4"/>
<path fill-rule="evenodd" clip-rule="evenodd" d="M106.456 114.044L120.772 186.501L140.513 174.168L124.351 121.753L106.456 114.044Z" fill="#D5D5D5"/>
<path fill-rule="evenodd" clip-rule="evenodd" d="M34.8745 90.9201L20.5581 137.169L38.4536 168.001L52.7699 121.753L34.8745 90.9201Z" fill="#E6E6E6"/>
<path fill-rule="evenodd" clip-rule="evenodd" d="M142.247 90.9201L156.563 137.169L138.667 168.001L124.351 121.753L142.247 90.9201Z" fill="#E6E6E6"/>
<path fill-rule="evenodd" clip-rule="evenodd" d="M70.6655 114.044L54.5596 189.584L88.5607 205L122.562 189.584L106.456 114.044L89.896 106.911L88.5607 106.336L70.6655 114.044Z" fill="#E6E6E6"/>
<path fill-rule="evenodd" clip-rule="evenodd" d="M94.9744 117.128H82.4477C82.4477 117.128 82.4477 118.954 82.4477 120.985C82.4477 122.416 83.108 123.786 84.2819 124.797C85.4559 125.808 87.0468 126.377 88.7076 126.377C88.7092 126.377 88.7129 126.377 88.7145 126.377C90.3753 126.377 91.9662 125.808 93.1402 124.797C94.3142 123.786 94.9744 122.416 94.9744 120.985C94.9744 118.954 94.9744 117.128 94.9744 117.128Z" fill="#353535"/>
</svg>
